<svg width="41" height="51" viewBox="0 0 41 51" fill="none" xmlns="http://www.w3.org/2000/svg">
<path d="M16.8127 34.1042H24.1877V27.9584H30.3335V20.5834H24.1877V14.4376H16.8127V20.5834H10.6668V27.9584H16.8127V34.1042ZM20.5002 50.0834C14.805 48.6494 10.1035 45.3819 6.39548 40.2808C2.68749 35.1798 0.833496 29.5154 0.833496 23.2876V8.29175L20.5002 0.916748L40.1668 8.29175V23.2876C40.1668 29.5154 38.3128 35.1798 34.6049 40.2808C30.8969 45.3819 26.1953 48.6494 20.5002 50.0834ZM20.5002 44.9209C24.7613 43.5688 28.2849 40.8647 31.071 36.8084C33.8571 32.7522 35.2502 28.2452 35.2502 23.2876V11.672L20.5002 6.14071L5.75016 11.672V23.2876C5.75016 28.2452 7.14322 32.7522 9.92933 36.8084C12.7154 40.8647 16.2391 43.5688 20.5002 44.9209Z" fill="#1C1B1F"/>
</svg>
