<svg width="17" height="17" viewBox="0 0 17 17" fill="none" xmlns="http://www.w3.org/2000/svg">
<path d="M8.30302 11.2791L11.6242 8.00468H4.98181L8.30302 11.2791ZM8.30302 17.0094C7.15444 17.0094 6.07504 16.7945 5.06484 16.3647C4.05464 15.935 3.17591 15.3517 2.42863 14.6149C1.68136 13.8782 1.08977 13.0118 0.653863 12.0159C0.217954 11.0199 0 9.9557 0 8.82329C0 7.69088 0.217954 6.62669 0.653863 5.63072C1.08977 4.63474 1.68136 3.76838 2.42863 3.03164C3.17591 2.29489 4.05464 1.71163 5.06484 1.28186C6.07504 0.852092 7.15444 0.637207 8.30302 0.637207C9.4516 0.637207 10.531 0.852092 11.5412 1.28186C12.5514 1.71163 13.4301 2.29489 14.1774 3.03164C14.9247 3.76838 15.5163 4.63474 15.9522 5.63072C16.3881 6.62669 16.606 7.69088 16.606 8.82329C16.606 9.9557 16.3881 11.0199 15.9522 12.0159C15.5163 13.0118 14.9247 13.8782 14.1774 14.6149C13.4301 15.3517 12.5514 15.935 11.5412 16.3647C10.531 16.7945 9.4516 17.0094 8.30302 17.0094Z" fill="white"/>
</svg>
