<svg width="210" height="210" viewBox="0 0 210 210" fill="none" xmlns="http://www.w3.org/2000/svg">
<path d="M104.967 2.40131L2.38525 104.983L104.967 207.565L207.548 104.983L104.967 2.40131Z" fill="url(#paint0_linear_406_1923)"/>
<path d="M104.967 2.40131L2.38525 104.983L104.967 207.565L207.548 104.983L104.967 2.40131Z" stroke="black" stroke-width="2" stroke-miterlimit="10"/>
<path d="M68.5029 60.9856C62.0711 62.9664 57.012 67.1296 54.9726 72.0649C52.3058 78.4774 55.1295 86.6694 63.3653 96.6408C65.0909 98.7559 67.7969 101.677 69.3264 103.154C70.8559 104.631 72.7384 106.612 73.4835 107.552L74.817 109.264V126.891C74.817 140.119 74.6993 144.584 74.3463 144.886C74.0326 145.155 71.8364 145.289 67.091 145.289C60.8161 145.289 60.2278 145.356 59.5219 145.96C58.3846 146.934 58.5022 148.445 59.7964 149.318C60.8161 150.023 61.0514 150.023 76.7779 149.922L92.7396 149.821L94.9358 148.546C99.4067 146.028 101.289 142.469 101.25 136.728C101.25 133.135 100.583 130.584 98.8969 127.764C97.9949 126.219 91.4846 118.866 82.7782 109.533L80.8958 107.519L80.6997 97.3122C80.5036 86.5015 80.582 85.7629 82.1507 86.468C82.5821 86.6694 83.2096 87.2066 83.5626 87.643C83.8763 88.0795 85.3666 89.6574 86.8569 91.1347C88.308 92.6119 90.7787 95.0628 92.269 96.6072C93.7985 98.1516 96.8183 101.207 99.0537 103.389C101.25 105.605 103.054 107.552 103.054 107.72C103.054 107.888 103.485 108.224 104.034 108.425C104.897 108.761 105.133 108.727 105.642 108.056C106.976 106.444 114.819 98.4537 120.506 92.9141C121.918 91.5376 123.879 89.456 124.859 88.3145C126.467 86.4008 127.879 85.4943 128.428 85.9979C128.546 86.0986 128.742 90.6982 128.82 96.1707L129.016 106.176L127.526 108.022C126.742 109.029 123.918 112.219 121.29 115.073C109.25 128.2 109.172 128.301 108.309 132.531C106.544 140.891 109.211 146.867 115.761 149.318C117.329 149.922 118.545 149.989 132.86 149.989C148.233 150.023 148.272 150.023 149.174 149.284C150.312 148.378 150.429 146.632 149.41 145.86C148.782 145.39 147.684 145.289 142.311 145.289C138.664 145.289 135.605 145.155 135.174 144.953C134.468 144.617 134.428 144.047 134.428 126.891V109.164L135.566 107.619C136.193 106.78 137.919 104.9 139.409 103.456C149.018 94.0556 153.959 86.3001 154.822 79.1153C155.528 73.1728 154.234 70.1512 149.174 65.8873C143.017 60.6834 137.174 59.1055 129.369 60.5155C126.389 61.0527 121.683 62.9329 118.584 64.813C116.114 66.3238 110.976 70.6548 110.702 71.4605C110.427 72.2327 111.447 73.9786 112.427 74.4486C113.878 75.0865 114.702 74.7843 117.604 72.4342C127.173 64.6787 135.88 63.1679 142.939 68.036C145.37 69.7147 148.037 72.4678 148.39 73.71C148.9 75.3551 148.312 75.4558 140.076 75.2544C135.487 75.1536 131.879 75.2208 130.977 75.4222C129.722 75.7244 128.546 76.7652 122.585 82.9091C118.741 86.8373 114.388 91.269 112.859 92.7462C111.368 94.2235 109.015 96.6072 107.682 98.0173C105.956 99.8638 104.936 100.636 104.348 100.636C103.838 100.636 103.446 100.502 103.446 100.334C103.446 100.166 102.426 99.0581 101.211 97.8494C97.9164 94.6935 95.8379 92.5784 91.4846 88.0459C84.5823 80.8276 79.131 75.4894 78.425 75.3215C78.0721 75.2208 74.0718 75.1872 69.601 75.2544C62.8947 75.3551 61.3259 75.2879 60.8553 74.8851C60.1494 74.2807 60.1494 74.3479 61.1299 72.7028C61.6005 71.9306 62.9339 70.4869 64.1104 69.5133C72.0717 62.9664 80.7389 63.8393 91.2101 72.2327C94.7397 75.0529 95.5633 75.2879 97.2497 73.8779C99.0537 72.4006 98.7792 71.3934 95.7594 68.8418C91.72 65.4844 88.5825 63.5036 84.896 62.0599C78.9741 59.7434 73.6404 59.374 68.5029 60.9856ZM74.2287 80.8612C74.6601 81.2305 74.7777 83.1777 74.8562 90.5639C74.8954 99.2931 74.8562 99.7967 74.1895 99.7967C73.2875 99.7967 66.9733 92.8469 64.6987 89.4224C62.8162 86.5015 60.6985 82.3384 60.6985 81.4655C60.6985 81.1298 60.9338 80.7269 61.2475 80.5926C61.5613 80.4583 64.5026 80.324 67.7577 80.3576C72.307 80.3911 73.7973 80.4919 74.2287 80.8612ZM147.723 80.6261C149.292 81.4655 145.723 88.2474 140.468 94.2906C136.429 98.9238 135.605 99.696 134.86 99.5617C134.35 99.4609 134.311 98.1516 134.389 90.3961C134.468 82.2041 134.546 81.2976 135.134 80.8276C135.683 80.4247 137.017 80.324 141.527 80.324C144.625 80.3576 147.41 80.4919 147.723 80.6261ZM128.859 130.147C128.938 141.898 128.859 143.812 128.35 144.483C127.761 145.255 127.526 145.289 123.408 145.289C118.741 145.289 117.722 145.02 115.957 143.375C114.427 141.965 113.721 140.622 113.447 138.373C112.819 133.84 114.545 130.181 119.918 124.641C121.879 122.593 124.271 119.907 125.291 118.665C126.663 116.919 127.291 116.416 127.918 116.483C128.742 116.583 128.742 116.651 128.859 130.147ZM83.641 118.464C84.2685 119.303 86.2294 121.519 87.9158 123.332C89.6414 125.145 91.6415 127.293 92.3474 128.032C94.3084 130.147 95.1712 132.464 95.4457 136.19C95.681 139.246 95.6418 139.615 94.7397 141.327C94.1123 142.469 93.171 143.543 92.269 144.147C90.8572 145.054 90.5042 145.121 86.4255 145.222C83.2881 145.289 81.8762 145.222 81.4056 144.886C80.7781 144.483 80.6997 143.375 80.6997 130.919C80.6605 123.5 80.7781 117.255 80.935 117.054C81.4056 116.382 82.4645 116.953 83.641 118.464Z" fill="black"/>
<defs>
<linearGradient id="paint0_linear_406_1923" x1="104.956" y1="2.41118" x2="104.956" y2="207.566" gradientUnits="userSpaceOnUse">
<stop offset="0.06" stop-color="#009FE3"/>
<stop offset="0.51" stop-color="#36A9E1" stop-opacity="0.37"/>
<stop offset="0.71" stop-color="#2581C4" stop-opacity="0"/>
</linearGradient>
</defs>
</svg>
